# xmcd CD database file
# Copyright (C) 1993-1998 Ti Kan
# 
# Track frame offsets:
#     188
#     13898
#     27718
#     42353
#     55538
#     70498
#     85705
#     97688
#     110915
#     123880
#     137740
#     151753
#     166438
#     182108
#     196330
#     211213
#     224468
#     238958
# 
# Disc length: 3375 seconds
# 
# Revision: 1
# Processed by: cddbd v1.4b41PL1 Copyright (c) Steve Scherf et al.
# Submitted via: DiscPlay 4.0.4
# 
DISCID=010d2d12
DTITLE=Billie Holiday - A Little Moonlight
DYEAR=1900
DGENRE=
TTITLE0=What A Little Moonlight Can Do
TTITLE1=Twenty Four Hours A Day
TTITLE2=If You Were Mine
TTITLE3=You Let Me Down
TTITLE4=These Foolish Things
TTITLE5=It's Like Reaching For The Moon
TTITLE6=No Regrets
TTITLE7=Summertime
TTITLE8=A Fine Romance
TTITLE9=Let's Call A Heart To Heart
TTITLE10=The Way You Look Tonight
TTITLE11=Who Loves You
TTITLE12=I Can't Give You Anything But Love
TTITLE13=That's Life, I Guess
TTITLE14=Pennies From Heaven
TTITLE15=I've Got My Love To Keep Me Warm
TTITLE16=This Year's Kisses
TTITLE17=This Is My Last Affair
EXTD=
EXTT0=
EXTT1=
EXTT2=
EXTT3=
EXTT4=
EXTT5=
EXTT6=
EXTT7=
EXTT8=
EXTT9=
EXTT10=
EXTT11=
EXTT12=
EXTT13=
EXTT14=
EXTT15=
EXTT16=
EXTT17=
PLAYORDER=
